#N canvas 563 265 818 304 10;
#X obj -255 78 sendOSC;
#X msg -255 9 connect localhost 9000;
#X msg -245 32 send /bang;
#X obj -165 55 tgl 15 0 empty empty empty 17 7 0 10 -262144 -1 -1 0
1;
#X obj -131 234 s scale;
#X floatatom -131 211 5 0 0 0 - - -, f 5;
#X obj -66 157 s bng;
#N canvas 288 339 227 239 BPM 0;
#X obj 22 -94 t b f;
#X obj 33 -34 /;
#X obj 33 0 outlet;
#X obj 22 -117 inlet;
#X obj 81 20 outlet;
#X msg 9 -64 240000;
#X obj 81 -34 / 8;
#X obj 139 -6 s BPM/2;
#X obj 127 -30 / 2;
#X connect 0 0 5 0;
#X connect 0 1 1 1;
#X connect 1 0 2 0;
#X connect 1 0 6 0;
#X connect 3 0 0 0;
#X connect 5 0 1 0;
#X connect 6 0 4 0;
#X connect 6 0 8 0;
#X connect 8 0 7 0;
#X restore -127 58 pd BPM;
#X floatatom -127 39 5 0 0 0 - - -, f 5;
#X obj -121 84 metro;
#X msg -245 55 disconnect;
#X obj -255 112 r send;
#X msg -255 134 send /module \$1;
#X obj -131 157 sel 0;
#X obj -131 128 count 8;
#N canvas 85 52 575 203 snd 1;
#X obj 13 12 inlet;
#X obj 13 94 tgl 15 0 empty empty empty 17 7 0 10 -262144 -1 -1 1 1
;
#X obj 13 67 unpack 0 0 0 0 0 0 0 0 0 0;
#X obj 30 94 tgl 15 0 empty empty empty 17 7 0 10 -262144 -1 -1 1 1
;
#X obj 47 94 tgl 15 0 empty empty empty 17 7 0 10 -262144 -1 -1 1 1
;
#X obj 64 94 tgl 15 0 empty empty empty 17 7 0 10 -262144 -1 -1 1 1
;
#X obj 81 94 tgl 15 0 empty empty empty 17 7 0 10 -262144 -1 -1 1 1
;
#X obj 98 94 tgl 15 0 empty empty empty 17 7 0 10 -262144 -1 -1 1 1
;
#X obj 115 94 tgl 15 0 empty empty empty 17 7 0 10 -262144 -1 -1 0
1;
#X obj 132 94 tgl 15 0 empty empty empty 17 7 0 10 -262144 -1 -1 0
1;
#X obj 149 94 tgl 15 0 empty empty empty 17 7 0 10 -262144 -1 -1 0
1;
#X obj 166 94 tgl 15 0 empty empty empty 17 7 0 10 -262144 -1 -1 0
1;
#X obj 13 34 OSCroute /on /tgl;
#X obj 190 67 unpack 0 0 0 0 0 0 0 0 0 0;
#X obj 190 93 s tgl_1;
#X obj 241 93 s tgl_4;
#X obj 207 113 s tgl_2;
#X obj 224 133 s tgl_3;
#X obj 258 113 s tgl_5;
#X obj 275 133 s tgl_6;
#X obj 326 133 s tgl_9;
#X obj 309 113 s tgl_8;
#X obj 292 93 s tgl_7;
#X obj 343 93 s tgl_10;
#X obj 13 114 sndo 1;
#X obj 30 135 sndo 2;
#X obj 47 156 sndo 3;
#X obj 64 114 sndo 4;
#X obj 81 135 sndo 5;
#X obj 98 156 sndo 6;
#X obj 115 114 sndo 7;
#X obj 132 135 sndo 8;
#X obj 149 156 sndo 9;
#X obj 166 177 sndo 10;
#X connect 0 0 12 0;
#X connect 1 0 24 0;
#X connect 2 0 1 0;
#X connect 2 1 3 0;
#X connect 2 2 4 0;
#X connect 2 3 5 0;
#X connect 2 4 6 0;
#X connect 2 5 7 0;
#X connect 2 6 8 0;
#X connect 2 7 9 0;
#X connect 2 8 10 0;
#X connect 2 9 11 0;
#X connect 3 0 25 0;
#X connect 4 0 26 0;
#X connect 5 0 27 0;
#X connect 6 0 28 0;
#X connect 7 0 29 0;
#X connect 8 0 30 0;
#X connect 9 0 31 0;
#X connect 10 0 32 0;
#X connect 11 0 33 0;
#X connect 12 0 2 0;
#X connect 12 1 13 0;
#X connect 13 0 14 0;
#X connect 13 1 16 0;
#X connect 13 2 17 0;
#X connect 13 3 15 0;
#X connect 13 4 18 0;
#X connect 13 5 19 0;
#X connect 13 6 22 0;
#X connect 13 7 21 0;
#X connect 13 8 20 0;
#X connect 13 9 23 0;
#X restore -10 137 pd snd;
#N canvas 0 22 240 151 pan 0;
#X obj 16 21 inlet;
#X obj 16 43 unpack 0 0 0 0 0 0 0 0 0 0;
#X obj 16 75 s pan_1;
#X obj 33 95 s pan_2;
#X obj 50 115 s pan_3;
#X obj 67 75 s pan_4;
#X obj 84 95 s pan_5;
#X obj 101 115 s pan_6;
#X obj 169 75 s pan_10;
#X obj 118 75 s pan_7;
#X obj 135 95 s pan_8;
#X obj 152 115 s pan_9;
#X connect 0 0 1 0;
#X connect 1 0 2 0;
#X connect 1 1 3 0;
#X connect 1 2 4 0;
#X connect 1 3 5 0;
#X connect 1 4 6 0;
#X connect 1 5 7 0;
#X connect 1 6 9 0;
#X connect 1 7 10 0;
#X connect 1 8 11 0;
#X connect 1 9 8 0;
#X restore 34 137 pd pan;
#N canvas 547 261 240 151 vel 0;
#X obj 16 21 inlet;
#X obj 16 43 unpack 0 0 0 0 0 0 0 0 0 0;
#X obj 16 75 s vel_1;
#X obj 33 95 s vel_2;
#X obj 50 115 s vel_3;
#X obj 67 75 s vel_4;
#X obj 84 95 s vel_5;
#X obj 101 115 s vel_6;
#X obj 152 115 s vel_9;
#X obj 135 95 s vel_8;
#X obj 118 75 s vel_7;
#X obj 169 75 s vel_10;
#X connect 0 0 1 0;
#X connect 1 0 2 0;
#X connect 1 1 3 0;
#X connect 1 2 4 0;
#X connect 1 3 5 0;
#X connect 1 4 6 0;
#X connect 1 5 7 0;
#X connect 1 6 10 0;
#X connect 1 7 9 0;
#X connect 1 8 8 0;
#X connect 1 9 11 0;
#X restore 78 137 pd vel;
#N canvas 359 117 450 300 length 0;
#X obj 51 62 inlet;
#X obj 51 84 unpack 0 0 0 0 0 0 0 0 0 0;
#X obj 51 116 s length_1;
#X obj 68 136 s length_2;
#X obj 85 156 s length_3;
#X obj 102 176 s length_4;
#X obj 119 116 s length_5;
#X obj 136 136 s length_6;
#X obj 153 156 s length_7;
#X obj 170 176 s length_8;
#X obj 187 116 s length_9;
#X obj 204 136 s length_10;
#X connect 0 0 1 0;
#X connect 1 0 2 0;
#X connect 1 1 3 0;
#X connect 1 2 4 0;
#X connect 1 3 5 0;
#X connect 1 4 6 0;
#X connect 1 5 7 0;
#X connect 1 6 8 0;
#X connect 1 7 9 0;
#X connect 1 8 10 0;
#X connect 1 9 11 0;
#X restore 122 137 pd length;
#X obj 170 25 dumpOSC 8000;
#X obj 170 47 OSCroute /object /state;
#X obj 358 105 OSCroute /BPM /scale /key;
#X floatatom 358 153 5 0 0 0 - - BPM, f 5;
#X floatatom 407 153 5 0 0 0 - - scale, f 5;
#N canvas 139 73 262 161 oct 0;
#X obj 16 21 inlet;
#X obj 16 43 unpack 0 0 0 0 0 0 0 0 0 0;
#X obj 16 75 s oct_1;
#X obj 33 95 s oct_2;
#X obj 50 115 s oct_3;
#X obj 67 75 s oct_4;
#X obj 84 95 s oct_5;
#X obj 101 115 s oct_6;
#X obj 118 75 s oct_7;
#X obj 135 95 s oct_8;
#X obj 152 115 s oct_9;
#X obj 169 75 s oct_10;
#X floatatom 220 24 5 0 0 0 - - -, f 5;
#X connect 0 0 1 0;
#X connect 1 0 2 0;
#X connect 1 1 3 0;
#X connect 1 2 4 0;
#X connect 1 3 5 0;
#X connect 1 4 6 0;
#X connect 1 5 7 0;
#X connect 1 6 8 0;
#X connect 1 7 9 0;
#X connect 1 8 10 0;
#X connect 1 9 11 0;
#X restore 306 137 pd oct;
#N canvas 356 232 450 300 pulse 0;
#X obj 51 62 inlet;
#X obj 51 84 unpack 0 0 0 0 0 0 0 0 0 0;
#X obj 51 116 s pulse_1;
#X obj 68 136 s pulse_2;
#X obj 85 156 s pulse_3;
#X obj 102 176 s pulse_4;
#X obj 119 116 s pulse_5;
#X obj 136 136 s pulse_6;
#X obj 153 156 s pulse_7;
#X obj 170 176 s pulse_8;
#X obj 187 116 s pulse_9;
#X obj 204 136 s pulse_10;
#X connect 0 0 1 0;
#X connect 1 0 2 0;
#X connect 1 1 3 0;
#X connect 1 2 4 0;
#X connect 1 3 5 0;
#X connect 1 4 6 0;
#X connect 1 5 7 0;
#X connect 1 6 8 0;
#X connect 1 7 9 0;
#X connect 1 8 10 0;
#X connect 1 9 11 0;
#X restore 184 137 pd pulse;
#X obj -10 115 OSCroute /on /pan /vel /length /pulse /channel /oct
;
#N canvas 0 22 450 300 channel 0;
#X obj 51 62 inlet;
#X obj 51 84 unpack 0 0 0 0 0 0 0 0 0 0;
#X obj 51 116 s ch_1;
#X obj 68 136 s ch_2;
#X obj 85 156 s ch_3;
#X obj 102 176 s ch_4;
#X obj 119 116 s ch_5;
#X obj 136 136 s ch_6;
#X obj 153 156 s ch_7;
#X obj 170 176 s ch_8;
#X obj 187 116 s ch_9;
#X obj 204 136 s ch_10;
#X connect 0 0 1 0;
#X connect 1 0 2 0;
#X connect 1 1 3 0;
#X connect 1 2 4 0;
#X connect 1 3 5 0;
#X connect 1 4 6 0;
#X connect 1 5 7 0;
#X connect 1 6 8 0;
#X connect 1 7 9 0;
#X connect 1 8 10 0;
#X connect 1 9 11 0;
#X restore 239 137 pd channel;
#X connect 1 0 0 0;
#X connect 2 0 0 0;
#X connect 3 0 9 0;
#X connect 5 0 4 0;
#X connect 7 1 9 1;
#X connect 8 0 7 0;
#X connect 9 0 14 0;
#X connect 9 0 6 0;
#X connect 10 0 0 0;
#X connect 11 0 12 0;
#X connect 12 0 0 0;
#X connect 13 0 2 0;
#X connect 13 0 5 0;
#X connect 13 0 8 0;
#X connect 14 0 13 0;
#X connect 19 0 20 0;
#X connect 19 0 20 0;
#X connect 20 0 26 0;
#X connect 21 0 22 0;
#X connect 21 1 23 0;
#X connect 26 0 15 0;
#X connect 26 1 16 0;
#X connect 26 2 17 0;
#X connect 26 3 18 0;
#X connect 26 4 25 0;
#X connect 26 5 27 0;
#X connect 26 6 24 0;
