#N canvas 357 443 818 304 10;
#X obj -255 78 sendOSC;
#X msg -245 32 send /bang;
#X obj -165 55 tgl 15 0 empty empty empty 17 7 0 10 -262144 -1 -1 1
1;
#X obj -131 234 s scale;
#X floatatom -131 211 5 0 0 0 - - -;
#X obj -66 157 s bng;
#N canvas 288 339 227 239 BPM 0;
#X obj 22 -94 t b f;
#X obj 33 -34 /;
#X obj 33 0 outlet;
#X obj 22 -117 inlet;
#X obj 81 20 outlet;
#X msg 9 -64 240000;
#X obj 81 -34 / 8;
#X obj 139 -6 s BPM/2;
#X obj 127 -30 / 2;
#X connect 0 0 5 0;
#X connect 0 1 1 1;
#X connect 1 0 2 0;
#X connect 1 0 6 0;
#X connect 3 0 0 0;
#X connect 5 0 1 0;
#X connect 6 0 4 0;
#X connect 6 0 8 0;
#X connect 8 0 7 0;
#X restore -127 58 pd BPM;
#X floatatom -127 39 5 0 0 0 - - -;
#X obj -121 84 metro;
#X msg -245 55 disconnect;
#X obj -255 112 r send;
#X msg -255 134 send /module \$1;
#X obj -131 157 sel 0;
#N canvas 85 52 575 203 snd 1;
#X obj 13 12 inlet;
#X obj 13 94 tgl 15 0 empty empty empty 17 7 0 10 -262144 -1 -1 1 1
;
#X obj 13 67 unpack 0 0 0 0 0 0 0 0 0 0;
#X obj 30 94 tgl 15 0 empty empty empty 17 7 0 10 -262144 -1 -1 1 1
;
#X obj 47 94 tgl 15 0 empty empty empty 17 7 0 10 -262144 -1 -1 1 1
;
#X obj 64 94 tgl 15 0 empty empty empty 17 7 0 10 -262144 -1 -1 0 1
;
#X obj 81 94 tgl 15 0 empty empty empty 17 7 0 10 -262144 -1 -1 0 1
;
#X obj 98 94 tgl 15 0 empty empty empty 17 7 0 10 -262144 -1 -1 0 1
;
#X obj 115 94 tgl 15 0 empty empty empty 17 7 0 10 -262144 -1 -1 0
1;
#X obj 132 94 tgl 15 0 empty empty empty 17 7 0 10 -262144 -1 -1 0
1;
#X obj 149 94 tgl 15 0 empty empty empty 17 7 0 10 -262144 -1 -1 0
1;
#X obj 166 94 tgl 15 0 empty empty empty 17 7 0 10 -262144 -1 -1 0
1;
#X obj 13 34 OSCroute /on /tgl;
#X obj 190 67 unpack 0 0 0 0 0 0 0 0 0 0;
#X obj 190 93 s tgl_1;
#X obj 241 93 s tgl_4;
#X obj 207 113 s tgl_2;
#X obj 224 133 s tgl_3;
#X obj 258 113 s tgl_5;
#X obj 275 133 s tgl_6;
#X obj 326 133 s tgl_9;
#X obj 309 113 s tgl_8;
#X obj 292 93 s tgl_7;
#X obj 343 93 s tgl_10;
#X obj 13 114 sndo3 1;
#X obj 64 114 sndo3 4;
#X obj 30 135 sndo3 2;
#X obj 47 156 sndo3 3;
#X obj 81 135 sndo3 5;
#X obj 98 156 sndo3 6;
#X obj 115 114 sndo3 7;
#X obj 132 135 sndo3 8;
#X obj 149 156 sndo3 9;
#X obj 166 177 sndo3 10;
#X obj 471 101 r tgl;
#X connect 0 0 12 0;
#X connect 1 0 24 0;
#X connect 2 0 1 0;
#X connect 2 1 3 0;
#X connect 2 2 4 0;
#X connect 2 3 5 0;
#X connect 2 4 6 0;
#X connect 2 5 7 0;
#X connect 2 6 8 0;
#X connect 2 7 9 0;
#X connect 2 8 10 0;
#X connect 2 9 11 0;
#X connect 3 0 26 0;
#X connect 4 0 27 0;
#X connect 5 0 25 0;
#X connect 6 0 28 0;
#X connect 7 0 29 0;
#X connect 8 0 30 0;
#X connect 9 0 31 0;
#X connect 10 0 32 0;
#X connect 11 0 33 0;
#X connect 12 0 2 0;
#X connect 12 1 13 0;
#X connect 13 0 14 0;
#X connect 13 1 16 0;
#X connect 13 2 17 0;
#X connect 13 3 15 0;
#X connect 13 4 18 0;
#X connect 13 5 19 0;
#X connect 13 6 22 0;
#X connect 13 7 21 0;
#X connect 13 8 20 0;
#X connect 13 9 23 0;
#X connect 34 0 13 0;
#X restore -10 137 pd snd;
#N canvas 0 22 240 151 pan 0;
#X obj 16 21 inlet;
#X obj 16 43 unpack 0 0 0 0 0 0 0 0 0 0;
#X obj 16 75 s pan_1;
#X obj 33 95 s pan_2;
#X obj 50 115 s pan_3;
#X obj 67 75 s pan_4;
#X obj 84 95 s pan_5;
#X obj 101 115 s pan_6;
#X obj 169 75 s pan_10;
#X obj 118 75 s pan_7;
#X obj 135 95 s pan_8;
#X obj 152 115 s pan_9;
#X connect 0 0 1 0;
#X connect 1 0 2 0;
#X connect 1 1 3 0;
#X connect 1 2 4 0;
#X connect 1 3 5 0;
#X connect 1 4 6 0;
#X connect 1 5 7 0;
#X connect 1 6 9 0;
#X connect 1 7 10 0;
#X connect 1 8 11 0;
#X connect 1 9 8 0;
#X restore 34 137 pd pan;
#N canvas 547 261 240 151 vel 0;
#X obj 16 21 inlet;
#X obj 16 43 unpack 0 0 0 0 0 0 0 0 0 0;
#X obj 16 75 s vel_1;
#X obj 33 95 s vel_2;
#X obj 50 115 s vel_3;
#X obj 67 75 s vel_4;
#X obj 84 95 s vel_5;
#X obj 101 115 s vel_6;
#X obj 152 115 s vel_9;
#X obj 135 95 s vel_8;
#X obj 118 75 s vel_7;
#X obj 169 75 s vel_10;
#X connect 0 0 1 0;
#X connect 1 0 2 0;
#X connect 1 1 3 0;
#X connect 1 2 4 0;
#X connect 1 3 5 0;
#X connect 1 4 6 0;
#X connect 1 5 7 0;
#X connect 1 6 10 0;
#X connect 1 7 9 0;
#X connect 1 8 8 0;
#X connect 1 9 11 0;
#X restore 78 137 pd vel;
#N canvas 359 117 450 300 length 0;
#X obj 51 62 inlet;
#X obj 51 84 unpack 0 0 0 0 0 0 0 0 0 0;
#X obj 51 116 s length_1;
#X obj 68 136 s length_2;
#X obj 85 156 s length_3;
#X obj 102 176 s length_4;
#X obj 119 116 s length_5;
#X obj 136 136 s length_6;
#X obj 153 156 s length_7;
#X obj 170 176 s length_8;
#X obj 187 116 s length_9;
#X obj 204 136 s length_10;
#X connect 0 0 1 0;
#X connect 1 0 2 0;
#X connect 1 1 3 0;
#X connect 1 2 4 0;
#X connect 1 3 5 0;
#X connect 1 4 6 0;
#X connect 1 5 7 0;
#X connect 1 6 8 0;
#X connect 1 7 9 0;
#X connect 1 8 10 0;
#X connect 1 9 11 0;
#X restore 122 137 pd length;
#X obj 170 25 dumpOSC 8000;
#X obj 170 47 OSCroute /object /state;
#X obj 358 105 OSCroute /BPM /scale /key;
#X floatatom 358 153 5 0 0 0 - - BPM;
#X floatatom 407 153 5 0 0 0 - - scale;
#N canvas 139 73 262 161 oct 0;
#X obj 16 21 inlet;
#X obj 16 43 unpack 0 0 0 0 0 0 0 0 0 0;
#X obj 16 75 s oct_1;
#X obj 33 95 s oct_2;
#X obj 50 115 s oct_3;
#X obj 67 75 s oct_4;
#X obj 84 95 s oct_5;
#X obj 101 115 s oct_6;
#X obj 118 75 s oct_7;
#X obj 135 95 s oct_8;
#X obj 152 115 s oct_9;
#X obj 169 75 s oct_10;
#X floatatom 220 24 5 0 0 0 - - -;
#X connect 0 0 1 0;
#X connect 1 0 2 0;
#X connect 1 1 3 0;
#X connect 1 2 4 0;
#X connect 1 3 5 0;
#X connect 1 4 6 0;
#X connect 1 5 7 0;
#X connect 1 6 8 0;
#X connect 1 7 9 0;
#X connect 1 8 10 0;
#X connect 1 9 11 0;
#X restore 240 137 pd oct;
#N canvas 356 232 450 300 pulse 0;
#X obj 51 62 inlet;
#X obj 51 84 unpack 0 0 0 0 0 0 0 0 0 0;
#X obj 51 116 s pulse_1;
#X obj 68 136 s pulse_2;
#X obj 85 156 s pulse_3;
#X obj 102 176 s pulse_4;
#X obj 119 116 s pulse_5;
#X obj 136 136 s pulse_6;
#X obj 153 156 s pulse_7;
#X obj 170 176 s pulse_8;
#X obj 187 116 s pulse_9;
#X obj 204 136 s pulse_10;
#X connect 0 0 1 0;
#X connect 1 0 2 0;
#X connect 1 1 3 0;
#X connect 1 2 4 0;
#X connect 1 3 5 0;
#X connect 1 4 6 0;
#X connect 1 5 7 0;
#X connect 1 6 8 0;
#X connect 1 7 9 0;
#X connect 1 8 10 0;
#X connect 1 9 11 0;
#X restore 184 137 pd pulse;
#N canvas 139 73 611 198 col 0;
#X obj 17 24 inlet;
#X obj 17 89 unpack 0 0 0 0 0 0 0 0 0 0;
#X obj 17 121 s r_1;
#X obj 34 141 s r_2;
#X obj 51 161 s r_3;
#X obj 68 121 s r_4;
#X obj 85 141 s r_5;
#X obj 102 161 s r_6;
#X obj 119 121 s r_7;
#X obj 136 141 s r_8;
#X obj 153 161 s r_9;
#X obj 170 121 s r_10;
#X obj 17 52 OSCroute /r /g /b;
#X obj 216 89 unpack 0 0 0 0 0 0 0 0 0 0;
#X obj 216 121 s g_1;
#X obj 233 141 s g_2;
#X obj 250 161 s g_3;
#X obj 267 121 s g_4;
#X obj 284 141 s g_5;
#X obj 301 161 s g_6;
#X obj 318 121 s g_7;
#X obj 335 141 s g_8;
#X obj 352 161 s g_9;
#X obj 369 121 s g_10;
#X obj 416 89 unpack 0 0 0 0 0 0 0 0 0 0;
#X obj 416 121 s b_1;
#X obj 433 141 s b_2;
#X obj 450 161 s b_3;
#X obj 467 121 s b_4;
#X obj 484 141 s b_5;
#X obj 501 161 s b_6;
#X obj 518 121 s b_7;
#X obj 535 141 s b_8;
#X obj 552 161 s b_9;
#X obj 569 121 s b_10;
#X connect 0 0 12 0;
#X connect 1 0 2 0;
#X connect 1 1 3 0;
#X connect 1 2 4 0;
#X connect 1 3 5 0;
#X connect 1 4 6 0;
#X connect 1 5 7 0;
#X connect 1 6 8 0;
#X connect 1 7 9 0;
#X connect 1 8 10 0;
#X connect 1 9 11 0;
#X connect 12 0 1 0;
#X connect 12 1 13 0;
#X connect 12 2 24 0;
#X connect 13 0 14 0;
#X connect 13 1 15 0;
#X connect 13 2 16 0;
#X connect 13 3 17 0;
#X connect 13 4 18 0;
#X connect 13 5 19 0;
#X connect 13 6 20 0;
#X connect 13 7 21 0;
#X connect 13 8 22 0;
#X connect 13 9 23 0;
#X connect 24 0 25 0;
#X connect 24 1 26 0;
#X connect 24 2 27 0;
#X connect 24 3 28 0;
#X connect 24 4 29 0;
#X connect 24 5 30 0;
#X connect 24 6 31 0;
#X connect 24 7 32 0;
#X connect 24 8 33 0;
#X connect 24 9 34 0;
#X restore 283 137 pd col;
#X obj -131 128 count 4;
#X obj -229 220 random 12;
#X floatatom -229 242 5 0 0 0 key - key;
#X obj -69 16 random 80;
#X obj -69 38 + 60;
#X obj 15 30 loadbang;
#X msg 15 58 14;
#X obj -10 115 OSCroute /on /pan /vel /length /pulse /oct /col /move
;
#N canvas 222 125 450 300 move 0;
#X obj 26 31 inlet;
#X obj 26 53 unpack 0 0 0 0 0 0 0 0 0 0;
#X obj 26 85 s move_1;
#X obj 43 105 s move_2;
#X obj 60 125 s move_3;
#X obj 77 85 s move_4;
#X obj 94 105 s move_5;
#X obj 111 125 s move_6;
#X obj 128 85 s move_7;
#X obj 145 105 s move_8;
#X obj 162 125 s move_9;
#X obj 179 85 s move_10;
#X connect 0 0 1 0;
#X connect 1 0 2 0;
#X connect 1 1 3 0;
#X connect 1 2 4 0;
#X connect 1 3 5 0;
#X connect 1 4 6 0;
#X connect 1 5 7 0;
#X connect 1 6 8 0;
#X connect 1 7 9 0;
#X connect 1 8 10 0;
#X connect 1 9 11 0;
#X restore 146 194 pd move;
#X obj -229 198 sel 0;
#X obj -229 176 count 192;
#X msg -255 8 connect localhost 9000;
#X obj 29 221 s tgl;
#X msg 29 199 1 1 1 1 1 1 1 1 1 1;
#X connect 1 0 0 0;
#X connect 2 0 8 0;
#X connect 4 0 3 0;
#X connect 6 1 8 1;
#X connect 7 0 6 0;
#X connect 8 0 5 0;
#X connect 8 0 25 0;
#X connect 8 0 35 0;
#X connect 9 0 0 0;
#X connect 10 0 11 0;
#X connect 11 0 0 0;
#X connect 12 0 1 0;
#X connect 12 0 4 0;
#X connect 12 0 7 0;
#X connect 17 0 18 0;
#X connect 17 0 18 0;
#X connect 18 0 32 0;
#X connect 19 0 20 0;
#X connect 19 1 21 0;
#X connect 25 0 12 0;
#X connect 26 0 27 0;
#X connect 28 0 29 0;
#X connect 29 0 7 0;
#X connect 30 0 28 0;
#X connect 30 0 31 0;
#X connect 30 0 36 0;
#X connect 31 0 4 0;
#X connect 32 0 13 0;
#X connect 32 1 14 0;
#X connect 32 2 15 0;
#X connect 32 3 16 0;
#X connect 32 4 23 0;
#X connect 32 5 22 0;
#X connect 32 6 24 0;
#X connect 32 7 33 0;
#X connect 34 0 26 0;
#X connect 34 0 38 0;
#X connect 35 0 34 0;
#X connect 36 0 0 0;
#X connect 38 0 37 0;
