#N canvas 292 123 653 570 10;
#N canvas 291 592 477 255 sendNote 0;
#X obj 38 60 makenote;
#X obj 38 82 noteout;
#X obj 38 12 inlet;
#X obj 120 12 inlet;
#X obj 161 12 inlet;
#X obj 38 38 spigot;
#X obj 202 12 inlet;
#X obj 79 12 inlet;
#X obj 15 119 outlet;
#X connect 0 0 1 0;
#X connect 0 1 1 1;
#X connect 2 0 5 0;
#X connect 3 0 0 1;
#X connect 4 0 0 2;
#X connect 5 0 0 0;
#X connect 5 0 8 0;
#X connect 6 0 1 2;
#X connect 7 0 5 1;
#X restore 73 452 pd sendNote;
#N canvas 415 108 474 352 scales 0;
#X obj 128 164 pack 60 0;
#X msg 128 187 nth \$2 \$1;
#X obj 128 210 coll scales.txt;
#C restore;
#X obj 179 143 - 1;
#X obj 128 141 + 1;
#X obj 128 264 outlet;
#X floatatom 199 120 5 0 0 0 scale - -;
#X obj 199 99 r scale;
#X obj 128 235 + 36;
#X obj 128 99 inlet;
#X connect 0 0 1 0;
#X connect 1 0 2 0;
#X connect 2 0 8 0;
#X connect 3 0 0 1;
#X connect 4 0 0 0;
#X connect 6 0 3 0;
#X connect 7 0 6 0;
#X connect 8 0 5 0;
#X connect 9 0 4 0;
#X restore 73 400 pd scales;
#X floatatom 73 420 5 0 0 0 noteNum - -;
#X obj 73 78 r bng;
#X floatatom 208 405 5 0 0 0 velocity vel_#1 -;
#X floatatom 284 406 5 0 0 0 length length_#1 -;
#X floatatom 208 430 5 0 0 0 channel ch_#1 -;
#X floatatom 73 379 5 0 0 0 note - -;
#X floatatom 73 196 5 0 0 0 - - -;
#X obj 100 300 f;
#X obj 73 220 t f b;
#X obj 143 195 vradio 10 1 0 9 empty empty empty 0 0 0 10 -262144 -1
-1 8;
#X obj 133 195 vradio 10 1 0 9 empty empty empty 0 0 0 10 -262144 -1
-1 2;
#X obj 163 195 vradio 10 1 0 9 empty empty empty 0 0 0 10 -262144 -1
-1 8;
#X obj 153 195 vradio 10 1 0 9 empty empty empty 0 0 0 10 -262144 -1
-1 8;
#X obj 183 195 vradio 10 1 0 9 empty empty empty 0 0 0 10 -262144 -1
-1 8;
#X obj 173 195 vradio 10 1 0 9 empty empty empty 0 0 0 10 -262144 -1
-1 7;
#X obj 203 195 vradio 10 1 0 9 empty empty empty 0 0 0 10 -262144 -1
-1 5;
#X obj 193 195 vradio 10 1 0 9 empty empty empty 0 0 0 10 -262144 -1
-1 8;
#N canvas 290 508 450 300 seq 0;
#X obj -103 54 t f b;
#X obj -53 165 sel 0;
#X obj -53 190 - 1;
#X obj -48 92 list split;
#X obj -53 142 -;
#X msg -53 120 8;
#X obj -20 121 t b f;
#X obj 14 55 inlet;
#X obj -107 31 inlet;
#X obj -53 260 outlet;
#X obj -53 212 +;
#X obj 87 51 inlet;
#X connect 0 0 3 1;
#X connect 1 1 2 0;
#X connect 2 0 10 0;
#X connect 3 1 6 0;
#X connect 4 0 1 0;
#X connect 5 0 4 0;
#X connect 6 0 5 0;
#X connect 6 1 4 1;
#X connect 7 0 3 0;
#X connect 8 0 0 0;
#X connect 10 0 9 0;
#X connect 11 0 10 1;
#X restore 73 349 pd seq;
#X floatatom 184 343 5 0 0 0 oct oct_#1 -;
#X obj 73 475 bng 15 250 50 0 empty empty empty 17 7 0 10 -262144 -1
-1;
#X floatatom 73 495 5 0 0 0 - - -;
#X obj 73 516 s send;
#X obj 147 512 ctlout 10 1;
#X obj 73 170 count;
#X floatatom 100 152 5 0 0 0 - pulse_#1 -;
#X obj 125 300 pack 0 0 0 0 0 0 0 0 0 0 0 0;
#X obj 223 195 vradio 10 1 0 9 empty empty empty 0 0 0 10 -262144 -1
-1 8;
#X obj 213 195 vradio 10 1 0 9 empty empty empty 0 0 0 10 -262144 -1
-1 8;
#X obj 243 195 vradio 10 1 0 9 empty empty empty 0 0 0 10 -262144 -1
-1 8;
#X obj 233 195 vradio 10 1 0 9 empty empty empty 0 0 0 10 -262144 -1
-1 8;
#X floatatom 371 252 5 0 0 0 - - -;
#X obj 371 274 s vel_\$1;
#X obj 426 274 s length_\$1;
#X floatatom 426 253 5 0 0 0 - - -;
#X floatatom 499 253 5 0 0 0 - - -;
#X obj 499 274 s ch_\$1;
#X floatatom 371 208 5 0 0 0 - - -;
#X obj 371 230 s count_\$1;
#X obj 210 482 r ch_\$1;
#X obj 84 128 spigot;
#X obj 157 115 tgl 15 0 empty empty empty 17 7 0 10 -262144 -1 -1 0
1;
#X floatatom 111 78 5 0 0 0 - BPM/2 -;
#X obj 84 106 delay;
#X obj 438 230 s oct_\$1;
#X obj 438 209 * 5;
#X floatatom 438 191 5 0 0 0 - - -;
#X floatatom 162 472 5 0 0 0 - pan_#1 -;
#X floatatom 371 295 5 0 0 0 - - -;
#X obj 371 317 s pan_\$1;
#X obj 147 490 f;
#X obj 88 434 inlet;
#X floatatom 189 14 5 0 0 0 - tgl_#1 -;
#X obj 189 33 sel 1;
#N canvas 747 88 475 476 makephrase 0;
#X obj 74 26 inlet;
#X obj 74 68 bng 15 250 50 0 empty empty empty 17 7 0 10 -262144 -1
-1;
#X floatatom 30 115 5 0 0 0 - - -;
#X floatatom 150 115 5 0 0 0 - - -;
#X obj 30 93 random 12;
#X obj 90 93 random 12;
#X obj 150 93 random 12;
#X floatatom 90 115 5 0 0 0 - - -;
#X obj 210 93 random 12;
#X floatatom 210 116 5 0 0 0 - - -;
#X obj 30 183 sel 0 1 2 3 4 5 6 7 8 9 10 11;
#X obj 30 204 random 8;
#X floatatom 30 226 5 0 0 0 - - -;
#X obj 30 245 outlet;
#X obj 173 34 r pulse_\$1;
#X obj 44 266 random 8;
#X floatatom 44 288 5 0 0 0 - - -;
#X obj 44 307 outlet;
#X obj 58 328 random 8;
#X floatatom 58 350 5 0 0 0 - - -;
#X obj 58 369 outlet;
#X obj 72 390 random 8;
#X floatatom 72 412 5 0 0 0 - - -;
#X obj 72 431 outlet;
#X obj 87 204 random 8;
#X floatatom 87 226 5 0 0 0 - - -;
#X obj 87 245 outlet;
#X obj 101 266 random 8;
#X floatatom 101 288 5 0 0 0 - - -;
#X obj 101 307 outlet;
#X obj 115 328 random 8;
#X floatatom 115 350 5 0 0 0 - - -;
#X obj 115 369 outlet;
#X obj 129 390 random 8;
#X floatatom 129 412 5 0 0 0 - - -;
#X obj 129 431 outlet;
#X obj 144 204 random 8;
#X floatatom 144 226 5 0 0 0 - - -;
#X obj 144 245 outlet;
#X obj 158 266 random 8;
#X floatatom 158 288 5 0 0 0 - - -;
#X obj 158 307 outlet;
#X obj 172 328 random 8;
#X floatatom 172 350 5 0 0 0 - - -;
#X obj 172 369 outlet;
#X obj 186 390 random 8;
#X floatatom 186 412 5 0 0 0 - - -;
#X obj 186 431 outlet;
#X connect 0 0 1 0;
#X connect 1 0 4 0;
#X connect 1 0 5 0;
#X connect 1 0 6 0;
#X connect 1 0 8 0;
#X connect 2 0 10 0;
#X connect 3 0 10 0;
#X connect 4 0 2 0;
#X connect 5 0 7 0;
#X connect 6 0 3 0;
#X connect 7 0 10 0;
#X connect 8 0 9 0;
#X connect 9 0 10 0;
#X connect 10 0 11 0;
#X connect 10 1 15 0;
#X connect 10 2 18 0;
#X connect 10 3 21 0;
#X connect 10 4 24 0;
#X connect 10 5 27 0;
#X connect 10 6 30 0;
#X connect 10 7 33 0;
#X connect 10 8 36 0;
#X connect 10 9 39 0;
#X connect 10 10 42 0;
#X connect 10 11 45 0;
#X connect 11 0 12 0;
#X connect 12 0 13 0;
#X connect 14 0 4 1;
#X connect 14 0 5 1;
#X connect 14 0 6 1;
#X connect 14 0 8 1;
#X connect 15 0 16 0;
#X connect 16 0 17 0;
#X connect 18 0 19 0;
#X connect 19 0 20 0;
#X connect 21 0 22 0;
#X connect 22 0 23 0;
#X connect 24 0 25 0;
#X connect 25 0 26 0;
#X connect 27 0 28 0;
#X connect 28 0 29 0;
#X connect 30 0 31 0;
#X connect 31 0 32 0;
#X connect 33 0 34 0;
#X connect 34 0 35 0;
#X connect 36 0 37 0;
#X connect 37 0 38 0;
#X connect 39 0 40 0;
#X connect 40 0 41 0;
#X connect 42 0 43 0;
#X connect 43 0 44 0;
#X connect 45 0 46 0;
#X connect 46 0 47 0;
#X restore 189 109 pd makephrase;
#X obj 399 62 loadbang;
#X msg 399 84 8;
#X obj 189 55 bng 15 250 50 0 empty empty empty 17 7 0 10 -262144 -1
-1;
#X obj 189 75 t b b;
#X connect 0 0 21 0;
#X connect 1 0 2 0;
#X connect 2 0 0 0;
#X connect 3 0 25 0;
#X connect 3 0 44 0;
#X connect 4 0 0 2;
#X connect 5 0 0 3;
#X connect 6 0 0 4;
#X connect 7 0 1 0;
#X connect 8 0 10 0;
#X connect 9 0 27 0;
#X connect 10 0 19 0;
#X connect 10 1 9 0;
#X connect 11 0 27 1;
#X connect 12 0 9 1;
#X connect 13 0 27 3;
#X connect 14 0 27 2;
#X connect 15 0 27 5;
#X connect 16 0 27 4;
#X connect 17 0 27 7;
#X connect 18 0 27 6;
#X connect 19 0 7 0;
#X connect 20 0 19 2;
#X connect 21 0 22 0;
#X connect 21 0 51 0;
#X connect 22 0 23 0;
#X connect 25 0 8 0;
#X connect 26 0 25 1;
#X connect 27 0 19 1;
#X connect 28 0 27 9;
#X connect 29 0 27 8;
#X connect 30 0 27 11;
#X connect 31 0 27 10;
#X connect 32 0 33 0;
#X connect 35 0 34 0;
#X connect 36 0 37 0;
#X connect 38 0 39 0;
#X connect 40 0 24 2;
#X connect 41 0 25 0;
#X connect 42 0 41 1;
#X connect 43 0 44 1;
#X connect 44 0 41 0;
#X connect 46 0 45 0;
#X connect 47 0 46 0;
#X connect 48 0 51 1;
#X connect 49 0 50 0;
#X connect 51 0 24 0;
#X connect 52 0 0 1;
#X connect 53 0 54 0;
#X connect 54 0 58 0;
#X connect 55 0 12 0;
#X connect 55 1 11 0;
#X connect 55 2 14 0;
#X connect 55 3 13 0;
#X connect 55 4 16 0;
#X connect 55 5 15 0;
#X connect 55 6 18 0;
#X connect 55 7 17 0;
#X connect 55 8 29 0;
#X connect 55 9 28 0;
#X connect 55 10 31 0;
#X connect 55 11 30 0;
#X connect 56 0 57 0;
#X connect 57 0 12 0;
#X connect 57 0 11 0;
#X connect 57 0 14 0;
#X connect 57 0 13 0;
#X connect 57 0 16 0;
#X connect 57 0 15 0;
#X connect 57 0 18 0;
#X connect 57 0 17 0;
#X connect 57 0 29 0;
#X connect 57 0 28 0;
#X connect 57 0 31 0;
#X connect 57 0 30 0;
#X connect 58 0 59 0;
#X connect 59 0 55 0;
#X connect 59 1 57 0;
