#N canvas 292 123 653 570 10;
#N canvas 291 592 477 255 sendNote 0;
#X obj 38 60 makenote;
#X obj 38 82 noteout;
#X obj 38 12 inlet;
#X obj 120 12 inlet;
#X obj 161 12 inlet;
#X obj 38 38 spigot;
#X obj 202 12 inlet;
#X obj 79 12 inlet;
#X obj 15 119 outlet;
#X connect 0 0 1 0;
#X connect 0 1 1 1;
#X connect 2 0 5 0;
#X connect 3 0 0 1;
#X connect 4 0 0 2;
#X connect 5 0 0 0;
#X connect 5 0 8 0;
#X connect 6 0 1 2;
#X connect 7 0 5 1;
#X restore 73 452 pd sendNote;
#N canvas 415 108 474 352 scales 0;
#X obj 128 164 pack 60 0;
#X msg 128 187 nth \$2 \$1;
#X obj 128 210 coll scales.txt;
#C restore;
#X obj 179 143 - 1;
#X obj 128 141 + 1;
#X obj 128 264 outlet;
#X floatatom 199 120 5 0 0 0 scale - -, f 5;
#X obj 199 99 r scale;
#X obj 128 235 + 36;
#X obj 128 99 inlet;
#X connect 0 0 1 0;
#X connect 1 0 2 0;
#X connect 2 0 8 0;
#X connect 3 0 0 1;
#X connect 4 0 0 0;
#X connect 6 0 3 0;
#X connect 7 0 6 0;
#X connect 8 0 5 0;
#X connect 9 0 4 0;
#X restore 73 400 pd scales;
#X floatatom 73 420 5 0 0 0 noteNum - -, f 5;
#X obj 73 78 r bng;
#X floatatom 208 405 5 0 0 0 velocity vel_#1 -, f 5;
#X floatatom 284 406 5 0 0 0 length length_#1 -, f 5;
#X floatatom 208 430 5 0 0 0 channel ch_#1 -, f 5;
#X floatatom 73 379 5 0 0 0 note - -, f 5;
#X floatatom 73 196 5 0 0 0 - - -, f 5;
#X obj 100 300 f;
#X obj 133 195 vradio 10 1 0 9 empty empty empty 0 0 0 10 -262144 -1
-1 2;
#N canvas 504 457 450 300 seq 0;
#X obj -103 54 t f b;
#X obj -53 165 sel 0;
#X obj -53 190 - 1;
#X obj -48 92 list split;
#X obj -53 142 -;
#X msg -53 120 8;
#X obj -20 121 t b f;
#X obj 14 55 inlet;
#X obj -107 31 inlet;
#X obj -53 260 outlet;
#X obj -53 212 +;
#X obj 87 51 inlet;
#X connect 0 0 3 1;
#X connect 1 1 2 0;
#X connect 2 0 10 0;
#X connect 3 1 6 0;
#X connect 4 0 1 0;
#X connect 5 0 4 0;
#X connect 6 0 5 0;
#X connect 6 1 4 1;
#X connect 7 0 3 0;
#X connect 8 0 0 0;
#X connect 10 0 9 0;
#X connect 11 0 10 1;
#X restore 73 349 pd seq;
#X floatatom 184 343 5 0 0 0 oct oct_#1 -, f 5;
#X obj 73 475 bng 15 250 50 0 empty empty empty 17 7 0 10 -262144 -1
-1;
#X floatatom 73 495 5 0 0 0 - - -, f 5;
#X obj 73 516 s send;
#X obj 147 512 ctlout 10 1;
#X obj 73 170 count;
#X floatatom 100 152 5 0 0 0 - pulse_#1 -, f 5;
#X floatatom 371 252 5 0 0 0 - - -, f 5;
#X obj 371 274 s vel_\$1;
#X obj 426 274 s length_\$1;
#X floatatom 426 253 5 0 0 0 - - -, f 5;
#X floatatom 499 253 5 0 0 0 - - -, f 5;
#X obj 499 274 s ch_\$1;
#X floatatom 371 208 5 0 0 0 - - -, f 5;
#X obj 210 482 r ch_\$1;
#X obj 84 128 spigot;
#X obj 157 115 tgl 15 0 empty empty empty 17 7 0 10 -262144 -1 -1 0
1;
#X floatatom 111 78 5 0 0 0 - BPM/2 -, f 5;
#X obj 84 106 delay;
#X obj 438 230 s oct_\$1;
#X obj 438 209 * 5;
#X floatatom 438 191 5 0 0 0 - - -, f 5;
#X floatatom 162 472 5 0 0 0 - pan_#1 -, f 5;
#X floatatom 371 295 5 0 0 0 - - -, f 5;
#X obj 371 317 s pan_\$1;
#X obj 147 490 f;
#X obj 88 434 inlet;
#X floatatom 189 14 5 0 0 0 - tgl_#1 -, f 5;
#X obj 189 33 sel 1;
#X obj 189 55 bng 15 250 50 0 empty empty empty 17 7 0 10 -262144 -1
-1;
#X obj 371 230 s pulse_\$1;
#X obj 189 75 random 8;
#X obj 38 249 sel 0;
#X connect 0 0 13 0;
#X connect 1 0 2 0;
#X connect 2 0 0 0;
#X connect 3 0 17 0;
#X connect 3 0 30 0;
#X connect 4 0 0 2;
#X connect 5 0 0 3;
#X connect 6 0 0 4;
#X connect 7 0 1 0;
#X connect 8 0 44 0;
#X connect 9 0 11 1;
#X connect 10 0 9 1;
#X connect 11 0 7 0;
#X connect 12 0 11 2;
#X connect 13 0 14 0;
#X connect 13 0 37 0;
#X connect 14 0 15 0;
#X connect 17 0 8 0;
#X connect 18 0 17 1;
#X connect 19 0 20 0;
#X connect 22 0 21 0;
#X connect 23 0 24 0;
#X connect 25 0 42 0;
#X connect 26 0 16 2;
#X connect 27 0 17 0;
#X connect 28 0 27 1;
#X connect 29 0 30 1;
#X connect 30 0 27 0;
#X connect 32 0 31 0;
#X connect 33 0 32 0;
#X connect 34 0 37 1;
#X connect 35 0 36 0;
#X connect 37 0 16 0;
#X connect 38 0 0 1;
#X connect 39 0 40 0;
#X connect 40 0 41 0;
#X connect 41 0 43 0;
#X connect 43 0 10 0;
#X connect 44 0 11 0;
#X connect 44 0 9 0;
